<svg width="32" height="35" viewBox="0 0 32 35" fill="none" xmlns="http://www.w3.org/2000/svg">
<path fill-rule="evenodd" clip-rule="evenodd" d="M17.2514 0.088384C20.2018 0.0860955 23.103 0.853365 25.676 2.31636C28.249 3.77935 30.4071 5.88881 31.9427 8.44174C29.5686 8.44174 27.2918 9.39743 25.6131 11.0986C23.9344 12.7997 22.9913 15.1069 22.9913 17.5127C22.9913 19.9185 23.9344 22.2257 25.6131 23.9268C27.2918 25.628 29.5686 26.5836 31.9427 26.5836C30.3808 29.1804 28.1755 31.3178 25.546 32.7833C22.9164 34.2489 19.9542 34.9916 16.9537 34.9376C13.9531 34.8837 11.0188 34.0349 8.44219 32.4757C5.86562 30.9165 3.73657 28.7012 2.26663 26.0499C0.796682 23.3986 0.0370246 20.4036 0.0631519 17.3627C0.0892791 14.3217 0.90028 11.3406 2.41556 8.71561C3.93084 6.09064 6.09763 3.91322 8.70059 2.39973C11.3036 0.886244 14.2521 0.0893989 17.2531 0.088384H17.2514Z" fill="#FFC780"/>
<path fill-rule="evenodd" clip-rule="evenodd" d="M31.9433 8.44155C29.5692 8.44155 27.2924 9.39724 25.6137 11.0984C23.935 12.7995 22.9919 15.1067 22.9919 17.5125C22.9919 19.9183 23.935 22.2255 25.6137 23.9266C27.2924 25.6278 29.5692 26.5835 31.9433 26.5835L31.8867 26.6694C30.1381 28.2754 27.9665 29.3317 25.6362 29.7097C23.306 30.0878 20.9175 29.7712 18.7615 28.7987C16.6055 27.8261 14.775 26.2395 13.4927 24.2318C12.2104 22.2241 11.5317 19.882 11.5391 17.4906C11.5465 15.0991 12.2398 12.7614 13.5345 10.7619C14.8292 8.76249 16.6695 7.18751 18.8315 6.22869C20.9935 5.26988 23.3838 4.96858 25.7117 5.36145C28.0396 5.75433 30.2046 6.82444 31.9433 8.44155Z" fill="url(#paint0_linear_1435_72049)"/>
<defs>
<linearGradient id="paint0_linear_1435_72049" x1="21.7402" y1="29.8682" x2="21.7402" y2="5.19555" gradientUnits="userSpaceOnUse">
<stop stop-color="#FFC780"/>
<stop offset="1" stop-color="#964B48"/>
</linearGradient>
</defs>
</svg>
